<svg t="1685450982248" class="icon" viewBox="0 0 1024 1024" version="1.1" xmlns="http://www.w3.org/2000/svg" p-id="11065" width="64" height="64"><path d="M512 517.12m-460.8 0a460.8 460.8 0 1 0 921.6 0 460.8 460.8 0 1 0-921.6 0Z" fill="#F9D67A" p-id="11066"></path><path d="M560.7424 833.28h-47.5648c-5.888 0-10.7008-4.8128-10.7008-10.7008V580.096c0-5.888 4.8128-10.7008 10.7008-10.7008h47.5648c5.888 0 10.7008 4.8128 10.7008 10.7008v242.4832c0 5.888-4.8128 10.7008-10.7008 10.7008z" fill="#6295CC" p-id="11067"></path><path d="M560.7424 838.4h-47.5648c-8.7552 0-15.8208-7.1168-15.8208-15.8208V580.096c0-8.7552 7.1168-15.8208 15.8208-15.8208h47.5648c8.7552 0 15.8208 7.1168 15.8208 15.8208v242.4832c0 8.704-7.1168 15.8208-15.8208 15.8208z m-47.5648-263.8848c-3.072 0-5.5808 2.5088-5.5808 5.5808v242.4832c0 3.072 2.5088 5.5808 5.5808 5.5808h47.5648c3.072 0 5.5808-2.5088 5.5808-5.5808V580.096c0-3.072-2.5088-5.5808-5.5808-5.5808h-47.5648z" fill="#413D2C" p-id="11068"></path><path d="M358.7584 271.0016C279.3984 271.0016 215.04 335.2576 215.04 414.4128v235.2128h287.3856V414.4128c0.0512-79.1552-64.3072-143.4112-143.6672-143.4112z" fill="#F48433" p-id="11069"></path><path d="M507.4944 654.6944H209.8688V414.4128c0-81.92 66.7648-148.5312 148.8384-148.5312 39.8336 0 77.2608 15.5136 105.3696 43.6736 28.0064 28.0576 43.4176 65.28 43.3664 104.8576v240.2816z m-287.3856-10.24h277.1456V414.4128c0.0512-36.864-14.2848-71.5264-40.3456-97.6384-26.2144-26.2144-61.0304-40.6528-98.1504-40.6528C282.3168 276.1216 220.16 338.176 220.16 414.4128v230.0416z" fill="#413D2C" p-id="11070"></path><path d="M516.3008 592.2816H304.64c-17.7664 0-32.1536-14.336-32.1536-32.1536V429.3632c0-17.7664 14.336-32.1536 32.1536-32.1536h211.6608c17.7664 0 32.1536 14.336 32.1536 32.1536v130.7648a32.14336 32.14336 0 0 1-32.1536 32.1536z" fill="#6295CC" p-id="11071"></path><path d="M516.3008 597.4016H304.64c-20.5312 0-37.2736-16.6912-37.2736-37.2736V429.4144c0-20.5312 16.6912-37.2736 37.2736-37.2736h211.6608c20.5312 0 37.2736 16.6912 37.2736 37.2736v130.7648c-0.0512 20.5312-16.7424 37.2224-37.2736 37.2224zM304.64 402.3808c-14.8992 0-27.0336 12.1344-27.0336 27.0336v130.7648c0 14.8992 12.1344 27.0336 27.0336 27.0336h211.6608c14.8992 0 27.0336-12.1344 27.0336-27.0336V429.4144c0-14.8992-12.1344-27.0336-27.0336-27.0336H304.64z" fill="#413D2C" p-id="11072"></path><path d="M548.4032 431.616c0-18.9952-15.4112-34.3552-34.3552-34.3552H306.9952c-19.0464 0-34.5088 15.4112-34.5088 34.3552v7.168L397.824 504.8832c7.936 4.1984 17.3568 4.1984 25.2928 0l125.3376-66.0992v-7.168z" fill="#FFFFFF" p-id="11073"></path><path d="M410.4704 513.1264c-5.1712 0-10.3424-1.2288-15.0528-3.7376l-128-67.4816V431.616c0-21.76 17.7664-39.4752 39.6288-39.4752h206.9504c21.9136 0 39.6288 17.7152 39.6288 39.4752v10.2912L425.472 509.44c-4.6592 2.4576-9.8304 3.6864-15.0016 3.6864zM277.6576 435.712l122.5728 64.6656c6.4 3.3792 14.08 3.3792 20.48 0l122.5728-64.6656v-4.096c0-16.128-13.1072-29.2352-29.2864-29.2352H306.9952c-16.1792 0-29.3888 13.1072-29.3888 29.2352v4.096z" fill="#413D2C" p-id="11074"></path><path d="M663.3472 271.0016H364.544v0.3072c76.6976 3.0208 137.9328 65.8944 137.9328 143.2064v235.2128h287.3856c19.0464 0 34.5088-15.4112 34.5088-34.3552V431.616c-0.0512-88.6784-72.1408-160.6144-161.024-160.6144z" fill="#FFFFFF" p-id="11075"></path><path d="M789.8112 654.7968H497.3568V414.5152c0-74.496-58.4192-135.168-133.0176-138.0864l-4.9152-0.2048v-10.0352l5.12-0.3072h298.8032c91.5968 0 166.0928 74.3424 166.0928 165.7856v183.7056c0 21.7088-17.7664 39.424-39.6288 39.424z m-282.2144-10.24h282.2656c16.1792 0 29.3888-13.1072 29.3888-29.2352V431.616c0-85.76-69.9392-155.5456-155.8528-155.5456H412.928a147.9424 147.9424 0 0 1 94.6688 138.3936v230.0928z" fill="#413D2C" p-id="11076"></path><path d="M743.8848 190.6688h-115.0464c-6.2976 0-11.4688 5.12-11.4688 11.4688v235.2128c0 9.5232 7.7312 17.2544 17.2544 17.2544s17.2544-7.7312 17.2544-17.2544V248.064h92.0064c6.2976 0 11.4688-5.12 11.4688-11.4688v-34.5088a11.4688 11.4688 0 0 0-11.4688-11.4176z" fill="#F48433" p-id="11077"></path><path d="M634.624 459.6736c-12.3392 0-22.3744-10.0352-22.3744-22.3744V202.0864a16.5888 16.5888 0 0 1 16.5888-16.5888h115.0464a16.5888 16.5888 0 0 1 16.5888 16.5888v34.5088a16.5888 16.5888 0 0 1-16.5888 16.5888h-86.8864v184.1152c0 12.3392-10.0352 22.3744-22.3744 22.3744z m-5.7856-263.8848c-3.4816 0-6.3488 2.8672-6.3488 6.3488v235.2128c0 6.7072 5.4272 12.1344 12.1344 12.1344s12.1344-5.4272 12.1344-12.1344V242.944h97.1264c3.4816 0 6.3488-2.8672 6.3488-6.3488v-34.5088c0-3.4816-2.8672-6.3488-6.3488-6.3488h-115.0464z" fill="#413D2C" p-id="11078"></path><path d="M779.1104 615.2192h-24.5248c-5.888 0-10.7008-4.8128-10.7008-10.7008v-24.5248c0-5.888 4.8128-10.7008 10.7008-10.7008h24.5248c5.888 0 10.7008 4.8128 10.7008 10.7008v24.5248c0 5.9904-4.8128 10.7008-10.7008 10.7008z" fill="#F48433" p-id="11079"></path><path d="M779.1104 620.3392h-24.5248c-8.7552 0-15.8208-7.1168-15.8208-15.8208v-24.5248c0-8.7552 7.1168-15.8208 15.8208-15.8208h24.5248c8.7552 0 15.8208 7.1168 15.8208 15.8208v24.5248c0 8.704-7.0656 15.8208-15.8208 15.8208z m-24.5248-45.9776c-3.072 0-5.5808 2.5088-5.5808 5.5808v24.5248c0 3.072 2.5088 5.5808 5.5808 5.5808h24.5248c3.1232 0 5.5808-2.4576 5.5808-5.5808v-24.5248c0-3.072-2.5088-5.5808-5.5808-5.5808h-24.5248z" fill="#413D2C" p-id="11080"></path><path d="M215.0912 649.6768l-16.9472 91.8016c-6.7584 38.0416 18.7392 68.864 56.7808 68.864h149.4016c38.144 0 74.4448-30.8224 81.2032-68.864l16.1792-91.8016H215.0912z" fill="#FFFFFF" p-id="11081"></path><path d="M404.3776 815.4624H254.9248c-19.7632 0-37.12-7.68-48.8448-21.7088-11.9296-14.2336-16.5376-33.1264-13.0048-53.1968l16.9472-91.8016c0.4608-2.4064 2.56-4.1984 5.0176-4.1984h286.6176c1.536 0 2.9696 0.6656 3.9424 1.8432 0.9728 1.1776 1.3824 2.7136 1.1264 4.1984L490.5984 742.4c-7.168 40.2944-45.824 73.0624-86.2208 73.0624z m-184.9856-160.6656L203.2128 742.4c-3.0208 16.9984 0.8192 32.9216 10.752 44.8 9.728 11.6224 24.2688 18.0224 40.96 18.0224h149.4016c35.6864 0 69.8368-28.9792 76.1344-64.6656l15.104-85.76H219.392z" fill="#413D2C" p-id="11082"></path></svg>