<svg data-v-decfdd8a="" version="1.1" xmlns="http://www.w3.org/2000/svg" xmlns:xlink="http://www.w3.org/1999/xlink"
  width="100%" height="100%" viewBox="0 0 340.000000 250.000000" preserveAspectRatio="xMidYMid meet"
  color-interpolation-filters="sRGB" style="margin: auto;" xmlns:svgjs="http://svgjs.com/svgjs">
  <g data-v-decfdd8a="" fill="rgba(255, 255, 245, 0.86)" class="icon-text-wrapper icon-svg-group iconsvg"
    transform="translate(89.77999877929688,60.93116760253906)">
    <g class="iconsvg-imagesvg" transform="matrix(1,0,0,1,50.220001220703125,0)" opacity="0">
      <g>
        <rect fill="rgba(255, 255, 245, 0.86)" fill-opacity="0" stroke-width="2" x="0" y="0" width="60" height="52.48517293864483"
          class="image-rect"></rect> <svg x="0" y="0" width="60" height="52.48517293864483"
          filtersec="colorsb3502046752" class="image-svg-svg primary" style="overflow: visible;"><svg
            xmlns="http://www.w3.org/2000/svg"
            viewBox="0.5621538758277893 0.8323931694030762 98.88917541503906 86.50361633300781">
            <path
              d="M52.85 2.48a3.3 3.3 0 0 0-5.713 0L1.002 82.389a3.311 3.311 0 0 0 0 3.298 3.292 3.292 0 0 0 2.857 1.649h92.294a3.298 3.298 0 0 0 2.663-5.244L52.85 2.48zM9.566 80.74l40.427-70.022L90.42 80.74H9.566z"
              fill="rgba(255, 255, 245, 0.86)"></path>
            <path
              d="M47.143 37.635l-15.69 27.186a3.311 3.311 0 0 0 0 3.298 3.292 3.292 0 0 0 2.856 1.65h31.409a3.298 3.298 0 0 0 2.664-5.245L52.857 37.642c-.587-1.021-1.677-1.649-2.857-1.649s-2.27.621-2.857 1.642zm12.841 25.53H40.01l9.984-17.298 9.991 17.298z"
              fill="rgba(255, 255, 245, 0.86)"></path>
          </svg></svg> <!---->
      </g>
    </g>
    <g transform="translate(0,59.485172271728516)">
      <g data-gra="path-name" fill-rule="" class="tp-name iconsvg-namesvg" transform="matrix(1,0,0,1,0,0)" opacity="1">
        <g transform="scale(1)">
          <g>
            <path
              d="M8.22 0Q6.48 0 5.52-0.96 4.56-1.92 4.56-3.6L4.56-3.6 4.56-38.76Q4.56-40.5 5.61-41.55 6.66-42.6 8.4-42.6L8.4-42.6Q10.2-42.6 11.25-41.55 12.3-40.5 12.3-38.76L12.3-38.76 12.3-6.36 29.16-6.36Q32.76-6.36 32.76-3.18L32.76-3.18Q32.76 0 29.16 0L29.16 0 8.22 0ZM50.4 0.48Q45.9 0.48 42.51-1.38 39.12-3.24 37.26-6.72 35.4-10.2 35.4-14.82L35.4-14.82Q35.4-19.44 37.26-22.89 39.12-26.34 42.51-28.2 45.9-30.06 50.4-30.06L50.4-30.06Q54.9-30.06 58.29-28.2 61.68-26.34 63.51-22.89 65.34-19.44 65.34-14.82L65.34-14.82Q65.34-10.2 63.51-6.72 61.68-3.24 58.29-1.38 54.9 0.48 50.4 0.48L50.4 0.48ZM50.34-5.34Q54-5.34 55.92-7.74 57.84-10.14 57.84-14.82L57.84-14.82Q57.84-19.44 55.92-21.87 54-24.3 50.4-24.3L50.4-24.3Q46.8-24.3 44.85-21.87 42.9-19.44 42.9-14.82L42.9-14.82Q42.9-10.14 44.82-7.74 46.74-5.34 50.34-5.34L50.34-5.34ZM97.62-5.82Q98.82-4.68 98.82-3.24L98.82-3.24Q98.82-1.86 97.83-0.78 96.84 0.3 95.52 0.3L95.52 0.3Q94.2 0.3 93.06-0.78L93.06-0.78 79.02-13.5 79.02-3.24Q79.02-1.5 77.94-0.6 76.86 0.3 75.24 0.3L75.24 0.3Q73.62 0.3 72.57-0.6 71.52-1.5 71.52-3.24L71.52-3.24 71.52-39.06Q71.52-40.8 72.57-41.7 73.62-42.6 75.24-42.6L75.24-42.6Q76.86-42.6 77.94-41.7 79.02-40.8 79.02-39.06L79.02-39.06 79.02-16.5 91.86-28.8Q92.94-29.88 94.32-29.88L94.32-29.88Q95.7-29.88 96.72-28.86 97.74-27.84 97.74-26.46L97.74-26.46Q97.74-25.08 96.6-23.94L96.6-23.94 87.18-15.18 97.62-5.82ZM126.48-8.04Q127.5-8.04 128.13-7.26 128.76-6.48 128.76-5.16L128.76-5.16Q128.76-3.3 126.54-2.04L126.54-2.04Q124.5-0.9 121.92-0.21 119.34 0.48 117 0.48L117 0.48Q109.92 0.48 105.78-3.6 101.64-7.68 101.64-14.76L101.64-14.76Q101.64-19.26 103.44-22.74 105.24-26.22 108.51-28.14 111.78-30.06 115.92-30.06L115.92-30.06Q119.88-30.06 122.82-28.32 125.76-26.58 127.38-23.4 129-20.22 129-15.9L129-15.9Q129-13.32 126.72-13.32L126.72-13.32 109.02-13.32Q109.38-9.18 111.36-7.23 113.34-5.28 117.12-5.28L117.12-5.28Q119.04-5.28 120.51-5.76 121.98-6.24 123.84-7.08L123.84-7.08Q125.64-8.04 126.48-8.04L126.48-8.04ZM116.1-24.78Q113.04-24.78 111.21-22.86 109.38-20.94 109.02-17.34L109.02-17.34 122.58-17.34Q122.46-21 120.78-22.89 119.1-24.78 116.1-24.78L116.1-24.78ZM151.98-30.06Q155.76-30.06 158.73-28.14 161.7-26.22 163.35-22.71 165-19.2 165-14.64L165-14.64Q165-10.08 163.35-6.66 161.7-3.24 158.76-1.38 155.82 0.48 151.98 0.48L151.98 0.48Q148.86 0.48 146.4-0.84 143.94-2.16 142.62-4.5L142.62-4.5 142.62 7.74Q142.62 9.3 141.6 10.2 140.58 11.1 138.9 11.1L138.9 11.1Q137.22 11.1 136.17 10.14 135.12 9.18 135.12 7.62L135.12 7.62 135.12-26.4Q135.12-28.02 136.11-28.98 137.1-29.94 138.78-29.94L138.78-29.94Q140.46-29.94 141.48-28.98 142.5-28.02 142.5-26.4L142.5-26.4 142.5-24.9Q143.82-27.36 146.31-28.71 148.8-30.06 151.98-30.06L151.98-30.06ZM150-5.34Q153.54-5.34 155.52-7.77 157.5-10.2 157.5-14.64L157.5-14.64Q157.5-19.2 155.52-21.72 153.54-24.24 150-24.24L150-24.24Q146.4-24.24 144.45-21.78 142.5-19.32 142.5-14.76L142.5-14.76Q142.5-10.26 144.45-7.8 146.4-5.34 150-5.34L150-5.34Z"
              transform="translate(-4.559999942779541, 42.599998474121094)"></path>
          </g> <!----> <!----> <!----> <!----> <!----> <!----> <!---->
        </g>
      </g>
      <g data-gra="path-slogan" fill-rule="" class="tp-slogan iconsvg-slogansvg" fill="rgba(255, 255, 245, 0.86)"
        transform="matrix(1,0,0,1,56.02917671203613,59.69999694824219)" opacity="1"><!----> <!---->
        <g transform="scale(1, 1)">
          <g transform="scale(1)">
            <path
              d="M7.17-6.09L7.17-6.09L6.09-6.09Q6-7.73 3.94-7.83L3.94-7.83Q2.02-7.78 2.02-6.33L2.02-6.33Q2.02-5.39 3.05-5.25L3.05-5.25L5.48-4.69Q7.41-4.22 7.41-2.34L7.41-2.34Q7.36 0.05 4.03 0.14L4.03 0.14Q2.20 0.14 1.45-0.61L1.45-0.61Q0.52-1.31 0.56-2.77L0.56-2.77L1.69-2.77Q1.73-0.80 4.03-0.75L4.03-0.75Q6.28-0.80 6.33-2.20L6.33-2.20Q6.52-3.38 4.45-3.75L4.45-3.75L2.67-4.13Q0.84-4.64 0.84-6.19L0.84-6.19Q0.98-8.72 3.84-8.81L3.84-8.81Q7.08-8.81 7.17-6.09ZM10.17-1.03L15.33-1.03L15.33 0L9 0L9-8.58L15.23-8.58L15.23-7.59L10.17-7.59L10.17-4.92L14.86-4.92L14.86-3.89L10.17-3.89L10.17-1.03ZM18.14-1.03L23.30-1.03L23.30 0L16.97 0L16.97-8.58L23.20-8.58L23.20-7.59L18.14-7.59L18.14-4.92L22.83-4.92L22.83-3.89L18.14-3.89L18.14-1.03ZM31.73-8.58L28.50-3.47L28.50 0L27.33 0L27.33-3.47L24.09-8.58L25.45-8.58L27.89-4.45L30.38-8.58L31.73-8.58ZM39.56-4.27L39.56-4.27Q39.38-7.64 36.56-7.83L36.56-7.83Q33.70-7.69 33.56-4.27L33.56-4.27Q33.70-0.94 36.56-0.80L36.56-0.80Q39.38-0.98 39.56-4.27ZM40.73-4.27L40.73-4.27Q40.45 0 36.56 0.14L36.56 0.14Q32.63 0 32.34-4.27L32.34-4.27Q32.58-8.72 36.56-8.81L36.56-8.81Q40.45-8.67 40.73-4.27ZM47.77-3.19L47.77-8.58L48.94-8.58L48.94-3.05Q48.80 0.05 45.42 0.14L45.42 0.14Q42.28 0.05 42.14-2.86L42.14-2.86L42.14-8.58L43.31-8.58L43.31-3.19Q43.36-0.84 45.47-0.80L45.47-0.80Q47.77-0.84 47.77-3.19L47.77-3.19Z"
              transform="translate(-0.5602678571428572, 8.8125)"></path>
          </g>
        </g>
      </g>
    </g>
  </g>
  <defs v-gra="od"></defs>
</svg>